<svg width="66" height="52" viewBox="0 0 66 52" fill="none" xmlns="http://www.w3.org/2000/svg">
<path d="M18.805 32.7443L6.72049 37.0955L6.5354 47.2194L25.009 40.5673C21.9486 38.1884 19.9356 35.8187 18.805 32.7443Z" fill="#FFCE32"/>
<g opacity="0.5">
<path opacity="0.5" d="M18.805 32.7443L6.72049 37.0955L6.5354 47.2194L25.009 40.5673C21.9486 38.1884 19.9356 35.8187 18.805 32.7443Z" fill="#FAAB3C"/>
</g>
<path d="M0 29.4586L6.71982 37.0965L18.8043 32.7453C17.5474 29.3295 17.3918 25.9044 18.2993 22.8698L0 29.4586Z" fill="#EC6623"/>
<g opacity="0.7">
<path opacity="0.7" d="M0 29.4586L6.71982 37.0965L18.8043 32.7453C17.5474 29.3295 17.3918 25.9044 18.2993 22.8698L0 29.4586Z" fill="#FAAB3C"/>
</g>
<path d="M32.1392 10.5363C16.8838 16.0294 7.04909 27.3633 10.1726 35.8528L65.4162 15.9612C62.2934 7.47246 47.3946 5.04315 32.1392 10.5363Z" fill="#FFCE32"/>
<path d="M43.4496 41.2775C58.705 35.7844 68.5577 24.5001 65.4162 15.9609L10.1726 35.8525C13.3148 44.3917 28.195 46.7699 43.4496 41.2775Z" fill="#EC6623"/>
<path opacity="0.7" d="M41.565 36.1539C56.8204 30.6608 67.5533 21.7675 65.4169 15.9607L10.1726 35.853C12.309 41.6598 26.3097 41.647 41.565 36.1539Z" fill="#FAAB3C"/>
<path opacity="0.5" d="M34.0247 15.6596C18.7693 21.1527 8.03643 30.046 10.1728 35.8528L65.4164 15.9612C63.28 10.1544 49.2801 10.1672 34.0247 15.6596Z" fill="#FAAB3C"/>
<path d="M51.3705 47.7559C49.7449 47.7559 47.3466 46.3088 44.2432 43.4551C40.5709 40.0783 36.3648 35.1331 32.399 29.53C28.4326 23.9268 25.1742 18.3251 23.2228 13.7568C21.0965 8.77821 20.7937 5.71726 22.3218 4.65838C22.6568 4.42631 23.0607 4.3092 23.522 4.3092C24.7652 4.3092 27.1872 5.22117 31.6658 9.5674L31.7641 9.6625L31.7512 9.79734C31.7204 10.1096 31.6924 10.4247 31.6673 10.7334L31.6171 11.3473L31.1773 10.9109C26.3514 6.11895 24.2272 5.60157 23.5378 5.60157C23.3412 5.60157 23.1848 5.64132 23.0722 5.71868C22.4093 6.17785 22.367 8.4262 24.4281 13.2522C26.3449 17.7396 29.556 23.2562 33.4708 28.7869C37.3856 34.3176 41.5279 39.1904 45.1342 42.5062C49.0232 46.0817 50.7758 46.4678 51.349 46.4678C51.547 46.4678 51.7077 46.4259 51.8268 46.3436C52.5262 45.8595 52.5269 43.4508 50.2284 38.2558L50.1229 38.0173L50.354 37.8924C50.585 37.7675 50.8081 37.6447 51.0183 37.5276L51.2952 37.3729L51.4229 37.661C53.0528 41.3416 54.5765 46.0199 52.5786 47.4046C52.2407 47.6373 51.8347 47.7559 51.3705 47.7559ZM51.3705 47.1881V47.472V47.1881Z" fill="#ED6724"/>
<path d="M43.82 41.1224L43.7971 41.4055C43.4111 46.1095 42.396 51.7644 39.7481 51.9929C39.695 51.9979 39.6398 52 39.5845 52C37.786 52 36.0844 49.46 34.5269 44.4502C33.0534 39.7108 31.9099 33.3469 31.3072 26.5316C30.7046 19.7177 30.7132 13.2544 31.3324 8.33263C32.0074 2.9694 33.2923 0.1682 35.151 0.00780651C35.2063 0.00283859 35.263 0 35.3189 0C36.6238 0 38.5902 1.45631 40.6032 8.23895L39.289 8.48877C38.6168 6.22197 37.8843 4.37816 37.1569 3.11205C36.484 1.94033 35.8304 1.29521 35.3153 1.29521C35.2981 1.29521 35.2816 1.29592 35.2644 1.29734C34.4588 1.36689 33.2851 3.29303 32.6316 8.49232C32.0232 13.3261 32.016 19.6922 32.6108 26.4187C33.2062 33.146 34.3303 39.4148 35.7773 44.0691C36.4251 46.1535 37.1361 47.8717 37.8327 49.0377C38.4754 50.1129 39.0967 50.7048 39.5831 50.7048C39.5996 50.7048 39.6168 50.7041 39.6333 50.7027C40.4045 50.6359 41.8572 48.6317 42.4684 41.5794L43.82 41.1224Z" fill="#ED6724"/>
</svg>
